<svg xmlns="http://www.w3.org/2000/svg" width="320" height="420" viewBox="0 0 320 420">
  <defs>
    <linearGradient id="bg" x1="0" y1="0" x2="0" y2="1">
      <stop offset="0" stop-color="#0d1117"/>
      <stop offset="1" stop-color="#09120d"/>
    </linearGradient>
    <linearGradient id="border" x1="0" y1="0" x2="1" y2="1">
      <stop offset="0" stop-color="#39d353"/>
      <stop offset="0.5" stop-color="#2ea043"/>
      <stop offset="1" stop-color="#39d353"/>
    </linearGradient>
    <linearGradient id="button" x1="0" y1="0" x2="1" y2="1">
      <stop offset="0" stop-color="#e95420"/>
      <stop offset="1" stop-color="#ff9248"/>
    </linearGradient>
    <filter id="glow" x="-50%" y="-50%" width="200%" height="200%">
      <feGaussianBlur stdDeviation="6" result="blur"/>
      <feMerge><feMergeNode in="blur"/><feMergeNode in="SourceGraphic"/></feMerge>
    </filter>
  </defs>
  <rect x="8" y="8" width="304" height="404" rx="24" fill="url(#bg)" stroke="url(#border)" stroke-width="1.5" filter="url(#glow)"/>
  <rect x="60" y="28" width="200" height="3" rx="1.5" fill="url(#border)"/>
  <g transform="translate(125,62)" fill="none" stroke="#e6edf3" stroke-width="4" stroke-linecap="round" stroke-linejoin="round" filter="url(#glow)">
    <rect x="1" y="1" width="68" height="54" rx="9"/>
    <path d="m17 19 11 9-11 9m21 0h15"/>
  </g>
  <text x="160" y="150" font-family="-apple-system,BlinkMacSystemFont,'Segoe UI',sans-serif" font-size="26" font-weight="700" text-anchor="middle" fill="#3fb950">Linux</text>
  <text x="160" y="178" font-family="'SFMono-Regular',Consolas,monospace" font-size="13" font-weight="600" text-anchor="middle" fill="#8b949e">x86-64 · two packages</text>
  <rect x="110" y="198" width="100" height="26" rx="13" fill="#12361d" stroke="#2ea043"/>
  <circle cx="124" cy="211" r="4" fill="#3fb950"/>
  <text x="172" y="216" font-family="-apple-system,BlinkMacSystemFont,'Segoe UI',sans-serif" font-size="10" font-weight="800" text-anchor="middle" fill="#3fb950" letter-spacing="1">SHIPPING</text>
  <rect x="60" y="248" width="200" height="48" rx="14" fill="url(#button)" filter="url(#glow)"/>
  <text x="160" y="278" font-family="-apple-system,BlinkMacSystemFont,'Segoe UI',sans-serif" font-size="14" font-weight="800" text-anchor="middle" fill="#fff">AppImage + .deb</text>
  <text x="42" y="340" font-family="'SFMono-Regular',Consolas,monospace" font-size="12" fill="#8b949e"><tspan fill="#3fb950">›</tspan> Vulkan / CPU local inference</text>
  <text x="42" y="365" font-family="'SFMono-Regular',Consolas,monospace" font-size="12" fill="#8b949e"><tspan fill="#3fb950">›</tspan> bubblewrap isolation (beta)</text>
</svg>
